<svg width="22" height="21" fill="none" xmlns="http://www.w3.org/2000/svg"><path d="M18.365 4.383a9.596 9.596 0 00-16.771 8.064m18.745-4.122A9.596 9.596 0 013.47 16.48" stroke="#fff" stroke-width="1.067" stroke-linecap="round"/><path d="M18.835 2.217v2.559h-2.559M5.721 16.29H3.162v2.559" stroke="#fff" stroke-width="1.067" stroke-linecap="round" stroke-linejoin="round"/><path d="M10.998 5.414V15.65" stroke="#fff" stroke-width="1.067" stroke-linecap="round"/><path d="M13.315 8.17c-.154-.679-1.028-1.434-2.308-1.434-1.28 0-2.265.832-2.265 1.881 0 2.385 4.748 1.16 4.748 3.928 0 1-1.203 1.848-2.482 1.848-1.28 0-2.168-.787-2.43-1.63" stroke="#fff" stroke-width="1.067" stroke-linecap="round" stroke-linejoin="round"/></svg>