<svg width="128" height="28" fill="none" xmlns="http://www.w3.org/2000/svg"><path d="M11.232.464h5.4v19.404c0 2.448-.732 4.344-2.196 5.688-1.464 1.32-3.54 1.98-6.228 1.98-2.472 0-4.476-.696-6.012-2.088C.732 24.08 0 22.124 0 19.58v-2.592h5.4v2.52c0 1.2.228 2.076.684 2.628.456.528 1.2.792 2.232.792.936 0 1.656-.264 2.16-.792.504-.528.756-1.284.756-2.268V.464zm25.692 18.108H23.892c.072 1.632.312 2.772.72 3.42.744 1.128 1.848 1.692 3.312 1.692 1.92 0 3.204-.816 3.852-2.448h4.968c-.552 1.92-1.644 3.456-3.276 4.608-1.632 1.128-3.54 1.692-5.724 1.692-2.76 0-4.932-.888-6.516-2.664-1.584-1.8-2.376-4.26-2.376-7.38 0-3.264.804-5.832 2.412-7.704 1.608-1.896 3.804-2.844 6.588-2.844 1.968 0 3.684.504 5.148 1.512 1.488.984 2.556 2.364 3.204 4.14.504 1.464.756 3.168.756 5.112 0 .288-.012.576-.036.864zm-12.96-3.348h7.74c-.264-2.952-1.572-4.428-3.924-4.428-2.232 0-3.504 1.476-3.816 4.428zm23.716-7.56v3.348h-2.81v10.584c0 .864.108 1.44.324 1.728.216.264.66.396 1.332.396.264 0 .648-.036 1.152-.108v3.528c-.864.264-1.836.396-2.916.396-3.288 0-4.932-1.524-4.932-4.572V11.012h-2.484V7.664h2.484v-5.22h5.04v5.22h2.808zm2.231-.396h5.005V9.68c.816-1.008 1.62-1.716 2.412-2.124.816-.408 1.787-.612 2.915-.612 2.544 0 4.309.96 5.292 2.88 1.44-1.92 3.337-2.88 5.689-2.88 1.944 0 3.456.528 4.535 1.584 1.105 1.056 1.656 2.532 1.656 4.428v13.752h-5.04v-12.96c0-.768-.251-1.38-.755-1.836-.48-.456-1.14-.684-1.98-.684-1.08 0-1.933.336-2.556 1.008-.6.672-.9 1.608-.9 2.808v11.664h-5.04v-12.96c0-.768-.252-1.38-.756-1.836-.48-.456-1.14-.684-1.98-.684-1.08 0-1.933.336-2.556 1.008-.6.672-.9 1.608-.9 2.808v11.664h-5.04V7.268zm36.205 0v19.44h-5.04V7.268h5.04zm0-6.804v4.5h-5.04v-4.5h5.04zm3.755 6.804h5.04v2.808c1.368-2.088 3.312-3.132 5.832-3.132 2.088 0 3.696.588 4.824 1.764 1.128 1.152 1.692 2.808 1.692 4.968v13.032h-5.04V14.72c0-2.328-1.08-3.492-3.24-3.492-1.248 0-2.244.348-2.988 1.044-.72.696-1.08 1.62-1.08 2.772v11.664h-5.04V7.268zm37.524 11.304h-13.032c.072 1.632.312 2.772.72 3.42.744 1.128 1.848 1.692 3.312 1.692 1.92 0 3.204-.816 3.852-2.448h4.968c-.552 1.92-1.644 3.456-3.276 4.608-1.632 1.128-3.54 1.692-5.724 1.692-2.76 0-4.932-.888-6.516-2.664-1.584-1.8-2.376-4.26-2.376-7.38 0-3.264.804-5.832 2.412-7.704 1.608-1.896 3.804-2.844 6.588-2.844 1.968 0 3.684.504 5.148 1.512 1.488.984 2.556 2.364 3.204 4.14.504 1.464.756 3.168.756 5.112 0 .288-.012.576-.036.864zm-12.96-3.348h7.74c-.264-2.952-1.572-4.428-3.924-4.428-2.232 0-3.504 1.476-3.816 4.428z" fill="#261C15"/></svg>