<svg width="22" height="21" fill="none" xmlns="http://www.w3.org/2000/svg"><path d="M10.243 16.635l-5.345-5.347C6.883 5.277 12.55.934 19.228.934c.443 0 .882.019 1.316.056.037.433.056.872.056 1.316 0 6.68-4.34 12.343-10.357 14.33z" stroke="#fff" stroke-width="1.067"/><path d="M5.515 16.018L4.143 17.39m3.429.685L6.2 19.447M3.457 13.96l-1.371 1.371" stroke="#fff" stroke-width="1.067" stroke-linecap="round"/><path d="M12.371 10.534a1.372 1.372 0 100-2.743 1.372 1.372 0 000 2.743z" stroke="#fff" stroke-width="1.5"/><path d="M13.742 2.305l5.486 5.485" stroke="#fff" stroke-width="1.5" stroke-linecap="round"/><path d="M13.743 15.334v4.8L1.4 7.79h4.8" stroke="#fff" stroke-width="1.5" stroke-linecap="round" stroke-linejoin="round"/></svg>