<svg width="22" height="21" fill="none" xmlns="http://www.w3.org/2000/svg"><path d="M14.034.971a1.48 1.48 0 011.585.656l1.471 2.349c.12.19.279.349.468.468l2.35 1.47a1.48 1.48 0 01.656 1.588l-.621 2.7a1.48 1.48 0 000 .662l.621 2.702a1.48 1.48 0 01-.657 1.583l-2.349 1.473a1.47 1.47 0 00-.468.468l-1.47 2.349a1.48 1.48 0 01-1.586.657l-2.701-.622a1.48 1.48 0 00-.662 0l-2.701.622a1.48 1.48 0 01-1.585-.657L4.913 17.09c-.119-.19-.28-.35-.469-.468l-2.347-1.471a1.48 1.48 0 01-.658-1.585l.62-2.702a1.48 1.48 0 000-.663l-.621-2.7a1.48 1.48 0 01.659-1.586l2.347-1.471a1.5 1.5 0 00.47-.468l1.47-2.35A1.48 1.48 0 017.969.972l2.702.62c.218.05.444.05.663 0l2.701-.62z" stroke="#fff" stroke-width="1.067"/><path d="M7.324 11.325l3.012 2.885 4.345-7.356" stroke="#fff" stroke-width="1.067" stroke-linecap="round" stroke-linejoin="round"/></svg>